<?xml version="1.0" encoding="utf-8"?>
<!-- Generator: Adobe Illustrator 28.0.0, SVG Export Plug-In . SVG Version: 6.00 Build 0)  -->
<svg version="1.1" id="_Слой_4" xmlns="http://www.w3.org/2000/svg" xmlns:xlink="http://www.w3.org/1999/xlink" x="0px"
	 y="0px" viewBox="0 0 365.7 377.1" style="enable-background:new 0 0 365.7 377.1;" xml:space="preserve">
<style type="text/css">
	.st0{fill:#7D4AFF;}
	.st1{fill:#FDA329;}
</style>
<circle class="st0" cx="244.8" cy="228.4" r="36.8"/>
<path class="st1" d="M145.2,295.5c-3.8-3.7-7.5-7.4-11.3-11.1c-0.5-0.5-0.5-1.2-0.1-1.8l19.8-23c3.4-4,6.9-8,10.4-12
	c1.7-2,3.4-4,5.2-6c0.9-1,1.7-2,2.6-3c0.8-0.9,1.6-2.1,2.5-2.9c0.4-0.3,0.7-0.4,1-0.4c0.5,0.1,1,0.5,1.5,1c1,0.9,1.9,1.7,2.9,2.6
	c1.9,1.7,3.9,3.5,5.8,5.2c4.3,3.9,8.6,7.8,12.8,11.7c0.2,0.2-8.9,10.8-9.8,11.8c-3.4,4-6.8,8-10.2,11.9c-0.9,1-1.7,2-2.6,3
	c-0.4,0.5-0.4,1.3,0.1,1.8c4.1,4.3,8.3,8.6,12.4,12.9c0.5,0.5,0.5,1.3,0,1.8c-5.9,5.9-11.8,11.8-17.7,17.8c-1,1-2.6,1-3.6,0
	C159.8,309.8,152.5,302.7,145.2,295.5L145.2,295.5z"/>
<path class="st0" d="M99.8,51.1c8.5,0.5,15.8,3.8,22.9,9.3c6.9,5.3,13.2,11.4,21,15.5c6.1,3.2,12.9,5.1,19.8,5.8
	c4.6,0.5,5.6-3.2,5.9-7.2c1.4-20.7-5.1-43.8-22.1-57.1C135,7.9,119.4,3,104,2.3c-13.3-0.6-23.6,2-29.7,3.7c-12.4,3.3-21.1,8-24,9.6
	c-14.9,8.3-24.3,18.6-28.7,24c-4.8,5.9-15.9,19.8-20,41.1c-1,5.3-3,16.6-0.1,30.7c0.9,4.2,5.1,23.5,21.4,39.4
	c4.8,4.7,9.6,7.9,19.1,14.1c10.2,6.7,12.6,7.1,26,15.8c2.9,1.9,11,7.2,19.4,15.5c3.1,3,5,5.3,6.7,8.4c5.6,10.4,4.2,23.1,0,33.8
	c-2.5,6.4-6.8,12.4-12.8,15.9c-6,3.5-13.9,4.2-20,0.7c-4.3-2.4-7.3-6.7-9.2-11.2c-1.2-3-1.8-6.2-1.5-9.4c1-9.3,7.7-17.9,3.7-27.5
	c-2.9-6.9-10-9.6-10.7-9.8c-9.5-3.4-18.7,2.7-23.4,5.7c-1.4,0.9-7.3,4.8-12.1,12.3c-0.9,1.3-4.4,7-6.2,15.6
	c-2.4,11.7,0.2,21.1,1.8,26.5c1.8,6.2,5.8,19.5,18.4,30.5c11.3,9.9,23.5,12.6,29,13.7c19.7,4.1,35.5-1.7,41.1-3.9
	c15.1-5.8,24.3-14.9,30.2-20.8c16.2-16.1,27.9-38.6,28.7-61.6c0.4-11-1.8-21.9-5.8-32.2c-6-15.2-16.2-28.8-29.1-39
	C103.5,134,87.8,128,75.2,117.5c-3.9-3.2-7.4-6.9-10-11.2c-4.6-7.4-6.2-16.5-4.6-25c3-15.6,18-28.8,33.7-30.1l0.3,0
	C96.3,51.1,98.1,51,99.8,51.1L99.8,51.1z"/>
<path class="st1" d="M264.9,321.8c1.5,1.3,1.8,3.5,0.7,5.1l-1,1.5c-2.7,4.1-7,8.2-10.5,11.7c-23.9,24.1-59.6,37.7-93.5,37
	c-32.2-0.7-64.2-15.1-84.6-39.9c-1.9-2.4-3.9-5.2-3.4-8.2c0.4-2.5,2.4-4.4,4.3-6.1c5-4.5,10.1-9,15.1-13.5c1.1-1,2.4-2.1,3.9-2.3
	c2.3-0.3,4.4,1.5,6.1,3.2c11.6,11.3,25.8,20,41.3,24.5c25.9,7.5,53,2,74.6-14.3c4.1-3.1,7.9-6.4,11.6-10c2.8-2.7,5.8-7.6,9.6-9
	c1.4-0.5,3.2,0.9,4.9,2.2l17.2,14.8L264.9,321.8L264.9,321.8z"/>
<path class="st1" d="M344.7,136.6c-3.9-8.1-11-14.2-18.9-18.5c-18.4-10-40.4-12.1-60.6-16.2c-11.8-2.4-24.5-4.1-35.6-9.1
	c-7.5-3.3-14.3-8.6-18-16c-12-24.1,16.7-34,35.2-34.5c12.5-0.4,25.2,2.7,36,9.2c7.6,4.5,16,13.5,13.1,23.2c-1.5,5-5.8,8.4-8.3,12.8
	c-1.7,2.9-4.8,10.7-2.5,13.8c0.1,0.2,0.2,0.3,0.4,0.4c2.4,1.8,10.2,1,13,0.9c6.7-0.1,13.5-0.8,19.6-3.4c12.4-5.2,20.9-18,22.5-31.5
	s-3.4-27.1-12-37.6c-9.7-11.9-23.2-19.3-37.7-23.9c-26.9-8.4-62.2-9.7-87.8,3.5c-20.9,10.8-30.9,30.5-30.8,53.5
	c0,4.1,0,8.2,0.1,12.3c0.2,31.6,0.4,63.1,0.6,94.7c0.1,12.2,2.3,22.9,9.7,32.9c3.3,4.4,7.2,8.3,11.6,11.7c1.1,0.9,13.9,8.6,13.9,8.4
	c3.3-12.9,10.1-23.3,22.9-28.6c11.9-4.9,25.7-3.5,36,4.3c7.5,5.8,12.6,14.5,13.9,23.9c8.8,0.1,16.5-2.2,24.3-6.5
	c9-4.9,17.4-11.3,25.1-18c-2-7.1-4-14.2-5.9-21.3c-0.6-2.4-1.3-4.4,1.7-5.2c3.2-0.8,6.3-1.6,9.5-2.5c1.7-0.5,3.4-0.9,5.1-0.8
	c0.6,0,6.6,3,6.3,3.5C352.4,163.5,348.9,145.2,344.7,136.6z M294.1,165.7c-0.7,1.5-2.2,4.9-3.9,5.6c-2.4,1-4.5-1.4-6.8-2.7
	c-20.4-11.8-43.1-12.5-64.6-3.2l-0.9-26.3c0,0,0,0,0,0l0,0l0,0c4.6-1.5,9.8-2.9,15.6-3.9c16.7-3,33.3-2.5,48.9,4.7
	c5.9,2.7,11.8,6.8,13.5,13C297,157,295.9,161.9,294.1,165.7z"/>
<path class="st0" d="M360.3,257.4c-1,2.4-3,7.8-4.3,10.1c-8.6,15.6-22.1,28.3-37.7,36.8c-10.7,5.8-22.5,9.7-34.6,11.2
	c-1.6,0.2-3.5,0.2-4.5-1.1c-0.5-0.7-0.6-1.6-0.6-2.4c-0.3-5.4-0.4-10.8-0.1-16.2c0.1-1.7,0.2-3.5,0.9-5.1c1.7-3.7,6.1-5.1,9.9-6.6
	c17.9-6.6,32.5-21.5,38.8-39.5s4.3-38.7-5.5-55.1c-1.8-3-3.9-6.2-3.3-9.6c0.3-1.7,1.2-3.2,2.2-4.6c3.5-5.3,7.4-10.4,11.6-15.1
	c0.5-0.5,1-1.1,1.7-1.4c1.6-0.6,3.2,0.7,4.3,1.9c12.2,12.2,20.7,28.1,24.3,44.9c1,4.9,1.8,9.9,2.1,14.8c0.4,6.2,0.2,12.5-0.7,18.6
	c-0.4,3.1-1,6.1-1.7,9.2S361.1,254.3,360.3,257.4"/>
</svg>
