<?xml version="1.0" encoding="UTF-8"?>
<svg id="_Слой_4" data-name=" Слой 4" xmlns="http://www.w3.org/2000/svg" viewBox="0 0 460 460">
  <defs>
    <style>
      .cls-1 {
        fill: #fdffff;
      }

      .cls-1, .cls-2, .cls-3 {
        stroke-width: 0px;
      }

      .cls-2 {
        fill: #7d4aff;
      }

      .cls-3 {
        fill: #fda329;
      }
    </style>
  </defs>
  <rect class="cls-1" width="460" height="460" rx="70" ry="70"/>
  <circle class="cls-2" cx="291.92" cy="269.9" r="36.76"/>
  <path class="cls-3" d="m192.36,337c-3.77-3.69-7.54-7.37-11.31-11.06-.49-.48-.52-1.25-.08-1.77l19.8-23c3.45-4.01,6.9-8.02,10.35-12.02,1.72-2,3.45-4.01,5.17-6.01.86-1,1.72-2,2.59-3.01.81-.94,1.58-2.12,2.54-2.91.36-.29.67-.39.97-.36.54.06,1.02.54,1.54,1,.97.87,1.95,1.73,2.92,2.6,1.94,1.74,3.88,3.48,5.82,5.23,4.29,3.88,8.55,7.79,12.8,11.72.18.18-8.94,10.8-9.76,11.77-3.36,4-6.75,7.98-10.16,11.94-.87,1.01-1.74,2.01-2.61,3.02-.44.51-.42,1.27.05,1.75,4.15,4.3,8.3,8.6,12.45,12.9.49.51.48,1.32,0,1.82-5.89,5.92-11.79,11.83-17.68,17.75-.98.98-2.56.99-3.55.02-7.28-7.12-14.56-14.25-21.85-21.37h.01Z"/>
  <path class="cls-2" d="m146.91,92.57c8.51.45,15.83,3.82,22.92,9.27,6.88,5.29,13.23,11.38,20.96,15.5,6.07,3.23,12.95,5.12,19.79,5.81,4.63.47,5.62-3.23,5.89-7.15,1.45-20.72-5.05-43.83-22.1-57.13-12.21-9.53-27.84-14.41-43.27-15.14-13.33-.63-23.55,2.02-29.69,3.66-12.39,3.32-21.13,8.01-24.04,9.63-14.93,8.34-24.27,18.6-28.67,23.98-4.84,5.91-15.92,19.79-19.95,41.13-1.01,5.35-3.02,16.58-.15,30.73.85,4.2,5.14,23.52,21.43,39.38,4.84,4.72,9.61,7.85,19.14,14.11,10.2,6.7,12.61,7.08,25.95,15.77,2.9,1.89,10.97,7.2,19.39,15.51,3.07,3.03,5.01,5.29,6.68,8.39,5.61,10.4,4.15,23.09.02,33.76-2.5,6.45-6.75,12.44-12.77,15.95-6.02,3.51-13.94,4.19-20,.73-4.28-2.45-7.33-6.7-9.16-11.17-1.22-2.97-1.82-6.18-1.46-9.37,1.03-9.26,7.72-17.91,3.66-27.52-2.93-6.93-10.02-9.56-10.66-9.79-9.46-3.35-18.71,2.66-23.39,5.7-1.4.91-7.26,4.84-12.09,12.31-.86,1.33-4.45,7.04-6.18,15.61-2.36,11.67.23,21.13,1.78,26.54,1.78,6.23,5.77,19.48,18.35,30.49,11.34,9.92,23.46,12.58,29.03,13.74,19.72,4.08,35.48-1.74,41.12-3.9,15.14-5.81,24.26-14.88,30.21-20.8,16.23-16.13,27.89-38.56,28.67-61.55.37-10.96-1.79-21.93-5.81-32.15-5.99-15.23-16.19-28.79-29.09-38.99-12.83-10.15-28.5-16.16-41.08-26.62-3.87-3.22-7.37-6.91-10.02-11.19-4.57-7.38-6.24-16.47-4.59-24.97,3.02-15.55,17.98-28.79,33.66-30.14l.27-.02c1.8-.15,3.54-.17,5.24-.08v-.02Z"/>
  <path class="cls-3" d="m312.01,363.21c1.48,1.27,1.79,3.45.72,5.08l-1,1.53c-2.73,4.15-6.98,8.22-10.48,11.74-23.91,24.07-59.62,37.73-93.47,36.95-32.15-.74-64.16-15.07-84.57-39.92-1.93-2.35-3.86-5.18-3.36-8.18.42-2.49,2.41-4.37,4.29-6.06,5.02-4.51,10.05-9.01,15.07-13.52,1.14-1.02,2.37-2.09,3.88-2.28,2.35-.31,4.37,1.54,6.07,3.19,11.6,11.28,25.79,20,41.32,24.51,25.95,7.54,53,1.95,74.57-14.28,4.07-3.06,7.92-6.41,11.58-9.95,2.79-2.7,5.82-7.62,9.56-9,1.35-.49,3.18.88,4.89,2.22l17.22,14.79,3.7,3.18h0Z"/>
  <path class="cls-3" d="m391.86,178.07c-3.92-8.06-11.02-14.23-18.89-18.51-18.42-10-40.41-12.1-60.64-16.22-11.82-2.41-24.5-4.12-35.58-9.07-7.47-3.34-14.35-8.65-17.98-15.98-11.95-24.1,16.68-33.97,35.15-34.48,12.53-.35,25.21,2.73,36,9.17,7.63,4.55,15.98,13.55,13.07,23.24-1.51,5.03-5.76,8.39-8.29,12.82-1.66,2.91-4.77,10.72-2.47,13.8.11.15.25.29.42.41,2.44,1.83,10.24.97,12.96.93,6.69-.09,13.48-.82,19.64-3.42,12.44-5.25,20.93-18.04,22.45-31.46s-3.42-27.14-11.96-37.6c-9.68-11.86-23.24-19.34-37.65-23.85-26.9-8.42-62.23-9.7-87.75,3.45-20.92,10.78-30.91,30.51-30.77,53.45.02,4.11.05,8.21.07,12.31.19,31.56.37,63.11.56,94.66.07,12.21,2.31,22.91,9.72,32.93,3.28,4.43,7.23,8.34,11.59,11.7,1.13.86,13.87,8.57,13.91,8.4,3.28-12.93,10.12-23.33,22.91-28.6,11.87-4.89,25.69-3.53,35.96,4.34,7.5,5.75,12.59,14.54,13.85,23.91,8.85.05,16.52-2.21,24.3-6.47,8.98-4.91,17.39-11.26,25.07-18.01-1.95-7.09-3.99-14.16-5.85-21.28-.62-2.39-1.28-4.38,1.68-5.16,3.15-.83,6.31-1.65,9.46-2.48,1.68-.45,3.4-.89,5.14-.76.6.05,6.56,2.99,6.26,3.48,5.35-8.74,1.81-27.1-2.34-35.65Zm-50.62,29.11c-.7,1.49-2.2,4.94-3.85,5.6-2.44.98-4.48-1.38-6.81-2.74-20.38-11.84-43.12-12.52-64.61-3.21l-.89-26.28s0,0-.01,0h.01s0,0,0,0c4.56-1.48,9.78-2.88,15.61-3.94,16.68-3.02,33.26-2.48,48.88,4.72,5.85,2.7,11.79,6.75,13.45,12.98,1.12,4.19.02,9.02-1.78,12.87Z"/>
  <path class="cls-2" d="m407.39,298.89c-1.05,2.4-3.04,7.77-4.31,10.07-8.6,15.58-22.06,28.3-37.66,36.77-10.73,5.82-22.53,9.67-34.65,11.19-1.61.2-3.54.23-4.48-1.09-.49-.69-.57-1.59-.62-2.44-.31-5.39-.35-10.8-.12-16.19.07-1.73.19-3.5.91-5.07,1.71-3.71,6.11-5.14,9.93-6.56,17.87-6.63,32.5-21.49,38.84-39.47s4.27-38.73-5.49-55.1c-1.76-2.96-3.85-6.16-3.27-9.56.29-1.7,1.22-3.2,2.16-4.64,3.48-5.31,7.36-10.36,11.6-15.09.49-.54,1.01-1.1,1.69-1.35,1.57-.56,3.16.68,4.33,1.86,12.18,12.24,20.7,28.05,24.33,44.93,1.05,4.88,1.76,9.86,2.07,14.84.39,6.21.17,12.46-.67,18.63-.42,3.08-.99,6.15-1.72,9.17s-2.03,6.01-2.89,9.12"/>
</svg>